<svg id="Capa_1" enable-background="new 0 0 512 512" height="512" viewBox="0 0 512 512" width="512" xmlns="http://www.w3.org/2000/svg"><g><g><path d="m356.753 488.898h-295.476c-8.3 0-15.029-6.729-15.029-15.029v-407.155c0-8.3 6.729-15.029 15.029-15.029h295.476c8.301 0 15.029 6.729 15.029 15.029v407.155c0 8.3-6.729 15.029-15.029 15.029z" fill="#ffdcd4"/><path d="m257.79 93.328h-97.55c-8.284 0-15-6.716-15-15v-53.308c0-8.284 6.716-15 15-15h97.551c8.284 0 15 6.716 15 15v53.309c-.001 8.283-6.717 14.999-15.001 14.999z" fill="#ceccf5"/><path d="m88.728 93.333h240.238v353.896h-240.238z" fill="#fff3d9"/><path d="m393.702 350.335-21.87 23.459-22.067-23.667c-16.5-17.697-43.251-17.697-59.751.001-16.5 17.699-16.5 46.394 0 64.092l81.818 87.76 81.621-87.552c16.502-17.699 16.502-46.396 0-64.095-16.501-17.697-43.252-17.696-59.751.002z" fill="#ff7c96"/></g><g><path d="m460.781 343.501c-9.896-10.614-23.11-16.46-37.204-16.459s-27.307 5.846-37.204 16.46l-4.571 4.904v-96.915c0-5.534-4.486-10.02-10.02-10.02s-10.02 4.486-10.02 10.02v96.81l-4.669-5.008c-5.228-5.607-11.387-9.867-18.107-12.654v-237.306c0-5.534-4.486-10.02-10.02-10.02h-46.662c.331-1.621.505-3.298.505-5.015v-16.594h68.671c5.669 0 10.282 4.613 10.282 10.282v90.164c0 5.534 4.486 10.02 10.02 10.02s10.02-4.486 10.02-10.02v-90.164c0-16.719-13.602-30.321-30.321-30.321h-68.671v-16.616c-.001-13.812-11.238-25.049-25.05-25.049h-97.491c-13.812 0-25.049 11.237-25.049 25.049v16.616h-68.671c-16.719 0-30.321 13.602-30.321 30.321v396.61c0 16.719 13.602 30.321 30.321 30.321h288.728l9.226 9.896c1.895 2.033 4.55 3.187 7.329 3.187s5.433-1.155 7.329-3.187l81.62-87.552c19.988-21.438 19.988-56.321 0-77.76zm-141.834-16.642c-13.74.255-26.587 6.059-36.262 16.437-19.986 21.437-19.986 56.319 0 77.757l15.063 16.157h-199v-333.857h220.199zm-163.688-301.81c0-2.762 2.248-5.01 5.01-5.01h97.491c2.762 0 5.01 2.248 5.01 5.01v16.616h-53.755c-5.534 0-10.02 4.486-10.02 10.02s4.486 10.02 10.02 10.02h53.755v16.595c0 2.762-2.248 5.01-5.01 5.01h-97.491c-2.762 0-5.01-2.248-5.01-5.01zm-88.71 453.829c-5.669 0-10.282-4.613-10.282-10.282v-396.61c0-5.67 4.613-10.282 10.282-10.282h68.671v16.595c0 1.717.174 3.394.505 5.015h-46.997c-5.534 0-10.02 4.486-10.02 10.02v353.896c0 5.534 4.486 10.02 10.02 10.02h227.702l20.165 21.63h-270.046zm379.574-71.282-74.292 79.691-74.489-79.899c-12.962-13.903-12.962-36.525 0-50.428 6.064-6.504 14.071-10.087 22.547-10.087s16.483 3.582 22.547 10.086l22.067 23.667c1.895 2.033 4.55 3.187 7.329 3.187 2.78 0 5.433-1.155 7.329-3.187l21.87-23.458c6.064-6.504 14.071-10.087 22.547-10.087s16.483 3.582 22.547 10.086c12.962 13.903 12.962 36.525-.002 50.429z"/><path d="m137.275 172.17h143.143c5.533 0 10.02-4.486 10.02-10.02s-4.486-10.02-10.02-10.02h-143.143c-5.534 0-10.02 4.486-10.02 10.02.001 5.534 4.487 10.02 10.02 10.02z"/><path d="m137.275 212.248h143.143c5.533 0 10.02-4.486 10.02-10.02s-4.486-10.02-10.02-10.02h-143.143c-5.534 0-10.02 4.486-10.02 10.02.001 5.534 4.487 10.02 10.02 10.02z"/><path d="m137.275 252.326h143.143c5.533 0 10.02-4.486 10.02-10.02s-4.486-10.02-10.02-10.02h-143.143c-5.534 0-10.02 4.486-10.02 10.02.001 5.535 4.487 10.02 10.02 10.02z"/><path d="m137.275 292.405h143.143c5.533 0 10.02-4.486 10.02-10.02s-4.486-10.02-10.02-10.02h-143.143c-5.534 0-10.02 4.486-10.02 10.02.001 5.534 4.487 10.02 10.02 10.02z"/><path d="m137.275 332.483h87.034c5.534 0 10.02-4.486 10.02-10.02s-4.486-10.02-10.02-10.02h-87.034c-5.534 0-10.02 4.486-10.02 10.02.001 5.534 4.487 10.02 10.02 10.02z"/><path d="m137.275 372.561h87.034c5.534 0 10.02-4.486 10.02-10.02s-4.486-10.02-10.02-10.02h-87.034c-5.534 0-10.02 4.486-10.02 10.02s4.487 10.02 10.02 10.02z"/><circle cx="371.734" cy="207.063" r="10"/></g></g></svg>